<svg fill="none" height="46" viewBox="0 0 47 46" width="47" xmlns="http://www.w3.org/2000/svg"> <path d="M41.1256 34.2484C39.6065 34.2502 38.1478 34.8429 37.0581 35.9013L31.2614 33.001C31.3005 32.7658 31.3247 32.5284 31.3339 32.2901C31.3247 32.0519 31.3005 31.8144 31.2614 31.5792L37.0581 28.6789C38.0342 29.6139 39.3033 30.1828 40.6507 30.2896C41.998 30.3964 43.3409 30.0344 44.4521 29.2648C45.5632 28.4953 46.3744 27.3655 46.7482 26.0666C47.1221 24.7678 47.0358 23.3797 46.5039 22.1371C45.972 20.8946 45.0271 19.874 43.8292 19.2481C42.6313 18.6221 41.2539 18.4293 39.9301 18.7022C38.6063 18.975 37.4175 19.6969 36.5648 20.7455C35.712 21.7941 35.2478 23.1052 35.2506 24.4568C35.2598 24.695 35.284 24.9325 35.323 25.1677L29.5264 28.0679C28.6972 27.2657 27.6502 26.7253 26.516 26.5143C25.3817 26.3032 24.2104 26.4308 23.1482 26.881C22.086 27.3313 21.1799 28.0844 20.5429 29.0463C19.9058 30.0082 19.5662 31.1364 19.5662 32.2901C19.5662 33.4438 19.9058 34.572 20.5429 35.5339C21.1799 36.4958 22.086 37.2489 23.1482 37.6992C24.2104 38.1495 25.3817 38.277 26.516 38.066C27.6502 37.8549 28.6972 37.3145 29.5264 36.5123L35.323 39.4126C35.284 39.6478 35.2598 39.8852 35.2506 40.1235C35.2506 41.2854 35.5951 42.4213 36.2407 43.3874C36.8862 44.3536 37.8038 45.1066 38.8773 45.5512C39.9508 45.9959 41.1321 46.1123 42.2717 45.8856C43.4114 45.6589 44.4582 45.0993 45.2798 44.2777C46.1015 43.4561 46.661 42.4092 46.8877 41.2696C47.1144 40.13 46.998 38.9487 46.5534 37.8752C46.1087 36.8017 45.3557 35.8841 44.3895 35.2386C43.4234 34.593 42.2875 34.2484 41.1256 34.2484ZM41.1256 22.4984C41.5129 22.4984 41.8915 22.6133 42.2136 22.8285C42.5356 23.0437 42.7866 23.3495 42.9348 23.7074C43.0831 24.0652 43.1218 24.459 43.0463 24.8388C42.9707 25.2187 42.7842 25.5677 42.5103 25.8415C42.2364 26.1154 41.8875 26.3019 41.5076 26.3775C41.1277 26.453 40.734 26.4143 40.3762 26.266C40.0183 26.1178 39.7125 25.8668 39.4973 25.5448C39.2821 25.2227 39.1672 24.8441 39.1672 24.4568C39.1672 23.9374 39.3736 23.4393 39.7408 23.072C40.1081 22.7048 40.6062 22.4984 41.1256 22.4984ZM25.4589 34.2484C25.0716 34.2484 24.693 34.1336 24.3709 33.9184C24.0489 33.7032 23.7979 33.3974 23.6496 33.0395C23.5014 32.6817 23.4626 32.2879 23.5382 31.9081C23.6138 31.5282 23.8003 31.1792 24.0742 30.9054C24.348 30.6315 24.697 30.445 25.0769 30.3694C25.4567 30.2938 25.8505 30.3326 26.2083 30.4808C26.5662 30.6291 26.872 30.8801 27.0872 31.2021C27.3024 31.5242 27.4172 31.9028 27.4172 32.2901C27.4172 32.8095 27.2109 33.3076 26.8437 33.6749C26.4764 34.0421 25.9783 34.2484 25.4589 34.2484ZM41.1256 42.0818C40.7383 42.0818 40.3596 41.9669 40.0376 41.7517C39.7155 41.5366 39.4645 41.2307 39.3163 40.8729C39.1681 40.515 39.1293 40.1213 39.2049 39.7414C39.2804 39.3615 39.4669 39.0126 39.7408 38.7387C40.0147 38.4648 40.3636 38.2783 40.7435 38.2027C41.1234 38.1272 41.5172 38.166 41.875 38.3142C42.2328 38.4624 42.5387 38.7134 42.7539 39.0355C42.9691 39.3575 43.0839 39.7361 43.0839 40.1235C43.0839 40.6428 42.8776 41.1409 42.5103 41.5082C42.1431 41.8755 41.645 42.0818 41.1256 42.0818ZM23.5006 42.0818C23.5006 42.6012 23.2942 43.0993 22.927 43.4665C22.5597 43.8338 22.0616 44.0401 21.5422 44.0401H11.1219C8.51202 43.9924 5.9969 43.0535 3.99419 41.3793C1.99149 39.705 0.621673 37.3961 0.112191 34.8359C-0.221295 32.6322 0.144398 30.3794 1.15784 28.3943C2.17128 26.4092 3.78148 24.7918 5.76198 23.7694C4.06185 20.6779 3.50707 17.0856 4.19532 13.6252C4.86452 10.2026 6.65657 7.10113 9.2876 4.81207C11.9186 2.523 15.2382 1.17724 18.7205 0.987948C22.2028 0.798659 25.6487 1.77667 28.5123 3.76706C31.376 5.75744 33.4936 8.64641 34.5299 11.9763C34.6286 12.3142 34.8094 12.6225 35.0561 12.8736C35.3028 13.1247 35.6077 13.311 35.9438 13.4157C36.1952 13.4864 36.4299 13.6068 36.6341 13.7696C36.8383 13.9324 37.0079 14.1344 37.1328 14.3637C37.2578 14.593 37.3357 14.845 37.3618 15.1048C37.3879 15.3647 37.3618 15.6271 37.285 15.8767C37.2082 16.1263 37.0823 16.358 36.9146 16.5583C36.7469 16.7585 36.5409 16.9231 36.3086 17.0425C36.0763 17.1619 35.8225 17.2336 35.5621 17.2535C35.3017 17.2733 35.04 17.2409 34.7923 17.1581C33.8482 16.8646 32.99 16.3449 32.2924 15.6442C31.5948 14.9435 31.0789 14.0831 30.7895 13.1376C30.3182 11.5694 29.5244 10.117 28.4588 8.87357C27.3933 7.63015 26.0797 6.62317 24.6022 5.91723C23.1246 5.21128 21.5159 4.82196 19.8791 4.77424C18.2423 4.72651 16.6136 5.02144 15.0974 5.64009C13.5813 6.25875 12.2112 7.18748 11.075 8.3667C9.93887 9.54592 9.06174 10.9496 8.4999 12.4877C7.93805 14.0258 7.7039 15.6644 7.81247 17.2983C7.92103 18.9322 8.36992 20.5253 9.13032 21.9756C9.61488 22.8802 9.72381 23.9393 9.43356 24.9237C9.1433 25.9081 8.47719 26.7386 7.57932 27.2357C6.31878 27.8879 5.29427 28.9187 4.64973 30.1832C4.00518 31.4477 3.77299 32.8824 3.98578 34.2857C4.34828 35.918 5.24901 37.3812 6.54326 38.4399C7.8375 39.4987 9.4501 40.0916 11.1219 40.1235H21.5422C22.0616 40.1235 22.5597 40.3298 22.927 40.697C23.2942 41.0643 23.5006 41.5624 23.5006 42.0818Z" fill="#4A6DB3"></path> </svg>