<svg fill="none" height="49" viewBox="0 0 49 49" width="49" xmlns="http://www.w3.org/2000/svg"> <g clip-path="url(#clip0_1205_24)"> <path d="M18.375 24.5C20.7978 24.5 23.1662 23.7816 25.1807 22.4355C27.1952 21.0895 28.7653 19.1763 29.6925 16.9379C30.6197 14.6995 30.8623 12.2364 30.3896 9.86015C29.9169 7.48388 28.7502 5.30114 27.0371 3.58795C25.3239 1.87475 23.1411 0.708055 20.7649 0.235386C18.3886 -0.237283 15.9255 0.00530775 13.6871 0.932481C11.4487 1.85965 9.53554 3.42977 8.1895 5.44427C6.84345 7.45877 6.125 9.82718 6.125 12.25C6.12824 15.4979 7.41991 18.6119 9.71652 20.9085C12.0131 23.2051 15.1271 24.4968 18.375 24.5ZM18.375 4.08334C19.9902 4.08334 21.5692 4.56231 22.9122 5.45967C24.2552 6.35703 25.3019 7.63249 25.92 9.12476C26.5381 10.617 26.6999 12.2591 26.3847 13.8432C26.0696 15.4274 25.2918 16.8826 24.1497 18.0247C23.0076 19.1668 21.5524 19.9446 19.9682 20.2598C18.3841 20.5749 16.742 20.4131 15.2498 19.795C13.7575 19.1769 12.482 18.1302 11.5847 16.7872C10.6873 15.4442 10.2083 13.8652 10.2083 12.25C10.2083 10.0841 11.0687 8.00685 12.6003 6.4753C14.1318 4.94375 16.2091 4.08334 18.375 4.08334V4.08334Z" fill="#3478F6"></path> <path d="M18.375 28.582C13.5035 28.588 8.83317 30.5258 5.38848 33.9705C1.94378 37.4152 0.0059432 42.0855 0 46.957C0 47.4985 0.215104 48.0178 0.59799 48.4007C0.980877 48.7836 1.50018 48.9987 2.04167 48.9987C2.58315 48.9987 3.10246 48.7836 3.48534 48.4007C3.86823 48.0178 4.08333 47.4985 4.08333 46.957C4.08333 43.1666 5.58906 39.5315 8.26926 36.8513C10.9495 34.1711 14.5846 32.6654 18.375 32.6654C22.1654 32.6654 25.8005 34.1711 28.4807 36.8513C31.1609 39.5315 32.6667 43.1666 32.6667 46.957C32.6667 47.4985 32.8818 48.0178 33.2646 48.4007C33.6475 48.7836 34.1668 48.9987 34.7083 48.9987C35.2498 48.9987 35.7691 48.7836 36.152 48.4007C36.5349 48.0178 36.75 47.4985 36.75 46.957C36.744 42.0855 34.8062 37.4152 31.3615 33.9705C27.9168 30.5258 23.2465 28.588 18.375 28.582V28.582Z" fill="#3478F6"></path> <path d="M44.9185 16.0781C43.7822 16.1347 42.7147 16.6391 41.9494 17.4809C41.1842 18.3227 40.7835 19.4333 40.8352 20.5698C40.8868 19.4333 40.4861 18.3227 39.7209 17.4809C38.9556 16.6391 37.8881 16.1347 36.7518 16.0781C35.6156 16.1347 34.548 16.6391 33.7828 17.4809C33.0175 18.3227 32.6169 19.4333 32.6685 20.5698C32.6685 24.1019 37.2745 28.2403 39.5693 30.0819C39.9285 30.3695 40.375 30.5262 40.8352 30.5262C41.2953 30.5262 41.7418 30.3695 42.101 30.0819C44.3958 28.2444 49.0018 24.1019 49.0018 20.5698C49.0534 19.4333 48.6528 18.3227 47.8875 17.4809C47.1223 16.6391 46.0547 16.1347 44.9185 16.0781V16.0781Z" fill="#3478F6"></path> </g> <defs> <clipPath id="clip0_1205_24"> <rect fill="white" height="49" width="49"></rect> </clipPath> </defs> </svg>