<svg fill="none" height="49" viewBox="0 0 51 49" width="51" xmlns="http://www.w3.org/2000/svg"> <g clip-path="url(#clip0_1198_179)"> <path d="M25.3895 49.0195L24.6373 48.699C23.8 48.3458 4.25 39.8626 4.25 24.5011V11.1813C4.25075 9.8995 4.67241 8.65059 5.45496 7.61243C6.23751 6.57428 7.34103 5.79981 8.60838 5.39932L25.5 0.0195312L42.3916 5.39932C43.659 5.79981 44.7625 6.57428 45.545 7.61243C46.3276 8.65059 46.7493 9.8995 46.75 11.1813V24.5011C46.75 42.0125 27.013 48.5009 26.1715 48.7704L25.3895 49.0195ZM25.5 4.3009L9.9535 9.25399C9.53051 9.38673 9.16209 9.64467 8.901 9.99088C8.63991 10.3371 8.49954 10.7538 8.5 11.1813V24.5011C8.5 35.7181 22.185 42.9946 25.5999 44.634C29.0084 43.3171 42.5 37.2881 42.5 24.5011V11.1813C42.5005 10.7538 42.3601 10.3371 42.099 9.99088C41.8379 9.64467 41.4695 9.38673 41.0465 9.25399L25.5 4.3009Z" fill="#4D88FF"></path> <path d="M23.6097 29.6923H23.5396C23.0018 29.6844 22.4712 29.5717 21.9799 29.3612C21.4887 29.1506 21.0469 28.8465 20.6815 28.4673L15.7812 23.5673L18.8434 20.7457L23.6119 25.5232L34.6215 14.9453L37.6262 17.8322L26.4466 28.5734C26.0743 28.9309 25.6318 29.2138 25.1448 29.4059C24.6579 29.5979 24.1361 29.6953 23.6097 29.6923Z" fill="#4D88FF"></path> </g> <defs> <clipPath id="clip0_1198_179"> <rect fill="white" height="49" width="51"></rect> </clipPath> </defs> </svg>