<svg fill="none" height="48" viewBox="0 0 50 48" width="50" xmlns="http://www.w3.org/2000/svg"> <path d="M36.4606 0.910156C34.1147 0.946646 31.8199 1.60152 29.808 2.80864C27.7962 4.01576 26.1384 5.73238 25.0023 7.78516C23.8661 5.73238 22.2084 4.01576 20.1965 2.80864C18.1846 1.60152 15.8899 0.946646 13.5439 0.910156C9.80423 1.07264 6.28083 2.7086 3.74349 5.46064C1.20615 8.21268 -0.138874 11.8571 0.00227313 15.5977C0.00227313 29.7122 22.8273 46.0143 23.7981 46.706L25.0023 47.5581L26.2064 46.706C27.1773 46.0185 50.0023 29.7122 50.0023 15.5977C50.1434 11.8571 48.7984 8.21268 46.2611 5.46064C43.7237 2.7086 40.2003 1.07264 36.4606 0.910156ZM25.0023 42.4289C18.2252 37.3664 4.16894 24.9289 4.16894 15.5977C4.02652 12.9616 4.9322 10.3763 6.68845 8.40536C8.44469 6.43447 10.909 5.23797 13.5439 5.07682C16.1789 5.23797 18.6432 6.43447 20.3994 8.40536C22.1557 10.3763 23.0614 12.9616 22.9189 15.5977H27.0856C26.9432 12.9616 27.8489 10.3763 29.6051 8.40536C31.3614 6.43447 33.8257 5.23797 36.4606 5.07682C39.0955 5.23797 41.5598 6.43447 43.3161 8.40536C45.0723 10.3763 45.978 12.9616 45.8356 15.5977C45.8356 24.9331 31.7794 37.3664 25.0023 42.4289Z" fill="#3478F6"></path> </svg>