<svg fill="none" height="47" viewBox="0 0 47 47" width="47" xmlns="http://www.w3.org/2000/svg"> <path d="M29.5532 31.3334C42.4195 31.2629 47 24.4479 47 18.6042C46.9988 17.0377 46.4609 15.5188 45.4761 14.3005C44.4912 13.0822 43.1187 12.2381 41.5872 11.9087C41.8535 11.1508 42.0846 10.4556 42.2393 9.92881C42.5812 8.78308 42.6483 7.57293 42.4353 6.3964C42.2223 5.21988 41.7352 4.11007 41.0134 3.15689C40.2857 2.17359 39.3367 1.37542 38.2432 0.826985C37.1498 0.278554 35.9426 -0.00472983 34.7193 5.97373e-05H12.2807C11.0574 -0.00472983 9.85021 0.278554 8.75675 0.826985C7.66329 1.37542 6.71431 2.17359 5.98662 3.15689C5.2648 4.11007 4.77766 5.21988 4.56467 6.3964C4.35169 7.57293 4.41885 8.78308 4.76071 9.92881C4.91542 10.4556 5.15237 11.1508 5.41283 11.9087C3.88129 12.2381 2.50881 13.0822 1.52393 14.3005C0.539057 15.5188 0.00122646 17.0377 0 18.6042C0 24.4479 4.58054 31.2629 17.4468 31.3334C17.5612 31.9279 17.6208 32.5316 17.625 33.137V39.1667C17.6586 39.6898 17.5804 40.214 17.3955 40.7045C17.2105 41.1949 16.9232 41.6403 16.5525 42.011C16.1819 42.3816 15.7365 42.6689 15.2461 42.8539C14.7556 43.0388 14.2314 43.1171 13.7083 43.0834H11.75C11.2306 43.0834 10.7325 43.2897 10.3652 43.657C9.99799 44.0242 9.79167 44.5224 9.79167 45.0417C9.79167 45.5611 9.99799 46.0592 10.3652 46.4265C10.7325 46.7937 11.2306 47.0001 11.75 47.0001H35.25C35.7694 47.0001 36.2675 46.7937 36.6348 46.4265C37.002 46.0592 37.2083 45.5611 37.2083 45.0417C37.2083 44.5224 37.002 44.0242 36.6348 43.657C36.2675 43.2897 35.7694 43.0834 35.25 43.0834H33.3073C32.7831 43.1187 32.2575 43.0418 31.7654 42.8577C31.2733 42.6735 30.8263 42.3865 30.454 42.0158C30.0818 41.645 29.793 41.1991 29.6069 40.7077C29.4208 40.2164 29.3418 39.6911 29.375 39.1667V33.1351C29.3793 32.5303 29.4389 31.9273 29.5532 31.3334ZM40.1458 15.6667C40.9249 15.6667 41.6721 15.9762 42.223 16.5271C42.7738 17.078 43.0833 17.8252 43.0833 18.6042C43.0833 22.5875 39.9324 26.8292 31.2628 27.358C31.6964 26.7662 32.1972 26.2267 32.7551 25.7502C35.8767 22.938 38.3646 19.4942 40.0538 15.6471C40.0851 15.6491 40.1125 15.6667 40.1458 15.6667ZM3.91667 18.6042C3.91667 17.8252 4.22615 17.078 4.77704 16.5271C5.32793 15.9762 6.07509 15.6667 6.85417 15.6667C6.88746 15.6667 6.91487 15.6491 6.94621 15.6471C8.63538 19.4942 11.1233 22.938 14.2449 25.7502C14.8028 26.2267 15.3036 26.7662 15.7372 27.358C7.06762 26.8292 3.91667 22.5875 3.91667 18.6042ZM20.588 43.0834C21.2354 41.8808 21.5637 40.5323 21.5417 39.1667V33.137C21.5485 31.1666 21.1261 29.2184 20.304 27.4277C19.4819 25.637 18.2797 24.0468 16.781 22.7676C12.7987 18.9617 9.93979 14.134 8.51679 8.81256C8.34957 8.25086 8.3174 7.65761 8.4229 7.08112C8.52839 6.50464 8.76857 5.96122 9.12387 5.49514C9.48919 5.00267 9.96534 4.60315 10.5138 4.32893C11.0622 4.05471 11.6675 3.91349 12.2807 3.91673H34.7193C35.3331 3.9144 35.9389 4.05682 36.4874 4.33242C37.0358 4.60803 37.5116 5.00906 37.8761 5.50298C38.2314 5.96905 38.4716 6.51247 38.5771 7.08896C38.6826 7.66544 38.6504 8.2587 38.4832 8.8204C37.0589 14.1391 34.2 18.9639 30.219 22.7676C28.7204 24.0464 27.5182 25.6363 26.696 27.4267C25.8739 29.217 25.4515 31.165 25.4583 33.1351V39.1667C25.4363 40.5323 25.7646 41.8808 26.412 43.0834H20.588Z" fill="#EA3357"></path> </svg>